<svg width="272" height="72" viewBox="0 0 272 72" fill="none" xmlns="http://www.w3.org/2000/svg">
  <rect x="2" y="4" width="64" height="64" rx="18" fill="#1D2325"/>
  <path d="M18 51V17H26.8V43.6H47.6V51H18Z" fill="#F4EDE1"/>
  <path d="M36 17H46.4C57.9467 17 66 23.9322 66 35.7664C66 47.5291 57.9467 54.4 46.4 54.4H36V17ZM45.5739 24.4384V46.9616H46.4C52.9634 46.9616 56.913 43.0774 56.913 35.7664C56.913 28.436 52.9634 24.4384 46.4 24.4384H45.5739Z" fill="#55B8AE"/>
  <circle cx="60" cy="18" r="4.5" fill="#C47A58"/>
  <path d="M87.4 50V20.8H95.64V42.88H108.76V50H87.4ZM113.811 50V20.8H122.051V50H113.811ZM130.572 50V20.8H142.972C151.596 20.8 158.036 26.656 158.036 35.4C158.036 44.108 151.596 50 142.972 50H130.572ZM138.812 42.88H142.252C146.612 42.88 149.596 40.06 149.596 35.4C149.596 30.704 146.612 27.92 142.252 27.92H138.812V42.88ZM164.522 50V20.8H184.682V27.72H172.762V32.28H183.602V39.04H172.762V50H164.522ZM190.906 50V20.8H203.586C211.206 20.8 215.966 24.92 215.966 31.56C215.966 35.84 213.826 39.2 210.106 40.88L216.466 50H207.266L202.306 42.24H199.146V50H190.906ZM199.146 35.88H202.666C205.706 35.88 207.566 34.48 207.566 31.92C207.566 29.2 205.706 27.88 202.666 27.88H199.146V35.88ZM234.95 50.72C226.01 50.72 219.57 44.36 219.57 35.4C219.57 26.44 226.01 20.08 234.95 20.08C243.89 20.08 250.33 26.44 250.33 35.4C250.33 44.36 243.89 50.72 234.95 50.72ZM234.95 43.32C239.09 43.32 241.93 40.14 241.93 35.4C241.93 30.66 239.09 27.48 234.95 27.48C230.81 27.48 227.97 30.66 227.97 35.4C227.97 40.14 230.81 43.32 234.95 43.32Z" fill="#1D2325"/>
</svg>
