<svg xmlns="http://www.w3.org/2000/svg" width="320" height="320" viewBox="0 0 320 320" role="img" aria-labelledby="title desc">
  <title id="title">QQ group QR code placeholder</title>
  <desc id="desc">Placeholder image for the LinaPro QQ group QR code.</desc>
  <rect width="320" height="320" rx="16" fill="#f7f9fc"/>
  <rect x="24" y="24" width="272" height="272" rx="12" fill="#ffffff" stroke="#d8dee9" stroke-width="2"/>
  <rect x="54" y="54" width="72" height="72" fill="#1f2937"/>
  <rect x="68" y="68" width="44" height="44" fill="#ffffff"/>
  <rect x="78" y="78" width="24" height="24" fill="#1f2937"/>
  <rect x="194" y="54" width="72" height="72" fill="#1f2937"/>
  <rect x="208" y="68" width="44" height="44" fill="#ffffff"/>
  <rect x="218" y="78" width="24" height="24" fill="#1f2937"/>
  <rect x="54" y="194" width="72" height="72" fill="#1f2937"/>
  <rect x="68" y="208" width="44" height="44" fill="#ffffff"/>
  <rect x="78" y="218" width="24" height="24" fill="#1f2937"/>
  <g fill="#5b6472">
    <rect x="150" y="58" width="18" height="18"/>
    <rect x="150" y="92" width="18" height="18"/>
    <rect x="170" y="142" width="18" height="18"/>
    <rect x="206" y="150" width="18" height="18"/>
    <rect x="242" y="146" width="18" height="18"/>
    <rect x="150" y="194" width="18" height="18"/>
    <rect x="184" y="198" width="18" height="18"/>
    <rect x="226" y="190" width="18" height="18"/>
    <rect x="250" y="226" width="18" height="18"/>
    <rect x="146" y="246" width="18" height="18"/>
    <rect x="190" y="244" width="18" height="18"/>
    <rect x="220" y="252" width="18" height="18"/>
  </g>
  <text x="160" y="158" text-anchor="middle" font-family="Arial, sans-serif" font-size="16" font-weight="700" fill="#111827">QQ QR</text>
  <text x="160" y="180" text-anchor="middle" font-family="Arial, sans-serif" font-size="13" fill="#5b6472">replace this image</text>
</svg>
